<svg t="1630398266136" class="icon" viewBox="0 0 1024 1024" version="1.1" xmlns="http://www.w3.org/2000/svg" p-id="2121"
  width="32" height="32">
  <path
    d="M282.666667 460.586667a642.56 642.56 0 0 0 281.173333 280.96l93.866667-94.08c11.733333-11.733333 28.586667-15.146667 43.306666-10.453334C748.8 652.8 800.213333 661.333333 853.333333 661.333333c23.68 0 42.666667 18.986667 42.666667 42.666667v149.333333c0 23.68-18.986667 42.666667-42.666667 42.666667C452.693333 896 128 571.306667 128 170.666667a42.666667 42.666667 0 0 1 42.666667-42.666667h149.333333c23.68 0 42.666667 18.986667 42.666667 42.666667 0 53.12 8.533333 104.533333 24.32 152.32 4.693333 14.72 1.28 31.573333-10.453334 43.306666l-93.866666 94.293334z"
    p-id="2122" fill="#2c2c2c"></path>
</svg>